<svg width="21" height="25" viewBox="0 0 21 25" xmlns="http://www.w3.org/2000/svg"><title>B8630F37-375C-4E30-89A0-19BCE9D547C4</title><g fill-rule="nonzero" fill="#FE3834"><path d="M8.64 0h.555c.932.557 1.76 1.268 2.605 1.945 2.957 2.447 5.857 5.13 7.727 8.53 1.318 2.353 1.818 5.168 1.22 7.81-.58 2.815-2.272 5.615-5.04 6.715h-.767c-.24-.365-.678-.733-.495-1.218.08-.412.52-.562.822-.777 2.043-1.092 3.13-3.365 3.583-5.545.508-2.425-.328-4.905-1.66-6.918-1.993-3.024-4.758-5.43-7.55-7.694-.5 1.96-1.37 3.825-2.6 5.435-1.19 1.627-2.665 3.032-3.777 4.72-1.098 1.657-1.55 3.772-1.063 5.712.57 2.188 2.553 3.927 4.792 4.22.495.128 1.196.065 1.426.64.307.563-.13 1.095-.555 1.425H7.04c-2.62-.288-5.027-1.975-6.21-4.328-1.038-2.035-1.058-4.497-.292-6.627 1.502-4.195 5.922-6.612 7.06-11C7.987 2.047 7.673.703 8.64 0z"/><path d="M9.88 8.732c-.115-.772.922-1.357 1.52-.85 1.793 1.403 3.315 3.255 4.04 5.438.827 2.473.298 5.317-1.252 7.395-.64.705-1.958-.012-1.658-.94.503-1.063 1.18-2.082 1.27-3.287.272-1.823-.558-3.563-1.63-4.976 0 1.718.012 3.798-1.418 5.008-1.135.86-2.652.32-3.57-.598-.145.76-.3 1.593.073 2.318.26.618.98.913 1.208 1.538.242.765-.673 1.492-1.37 1.127-1.363-.773-2.153-2.367-2.063-3.915.055-1.262.482-2.505 1.16-3.565.305-.488 1.095-.558 1.462-.107.548.662 1.068 1.377 1.843 1.797 1.107-1.953.598-4.277.385-6.383z"/></g></svg>